<svg viewBox="0 0 16 16" fill="none" xmlns="http://www.w3.org/2000/svg">
  <path d="M5.294 10.763C5.31396 10.7826 5.32981 10.8059 5.34063 10.8316C5.35146 10.8574 5.35703 10.8851 5.35703 10.913C5.35703 10.9409 5.35146 10.9686 5.34063 10.9944C5.32981 11.0201 5.31396 11.0434 5.294 11.063L4.835 11.523C4.81567 11.5424 4.79269 11.5579 4.76737 11.5684C4.74206 11.5789 4.71492 11.5843 4.6875 11.5843C4.66008 11.5843 4.63294 11.5789 4.60763 11.5684C4.58231 11.5579 4.55933 11.5424 4.54 11.523L1.131 8.123C1.05296 8.04466 1.00914 7.93858 1.00914 7.828C1.00914 7.71742 1.05296 7.61134 1.131 7.533L1.592 7.07L5.294 10.763ZM14.872 7.534L14.414 7.074L10.714 10.768C10.675 10.8072 10.6531 10.8602 10.6531 10.9155C10.6531 10.9708 10.675 11.0238 10.714 11.063L11.173 11.523C11.2122 11.562 11.2652 11.5839 11.3205 11.5839C11.3758 11.5839 11.4288 11.562 11.468 11.523L14.877 8.123C14.9543 8.04417 14.9972 7.93788 14.9963 7.82747C14.9953 7.71705 14.9506 7.61151 14.872 7.534V7.534Z" fill="#50E6FF" />
  <path d="M5.224 4.631C5.26302 4.67017 5.28493 4.72321 5.28493 4.7785C5.28493 4.83379 5.26302 4.88683 5.224 4.926L1.585 8.576L1.123 8.115C1.08412 8.07634 1.05326 8.03038 1.03221 7.97975C1.01115 7.92912 1.00031 7.87483 1.00031 7.82C1.00031 7.76517 1.01115 7.71088 1.03221 7.66025C1.05326 7.60963 1.08412 7.56366 1.123 7.525L4.467 4.17C4.50617 4.13098 4.55921 4.10907 4.6145 4.10907C4.66979 4.10907 4.72283 4.13098 4.762 4.17L5.224 4.631ZM14.878 7.523L11.533 4.168C11.5135 4.14792 11.4902 4.13196 11.4644 4.12106C11.4387 4.11016 11.411 4.10454 11.383 4.10454C11.355 4.10454 11.3273 4.11016 11.3016 4.12106C11.2758 4.13196 11.2525 4.14792 11.233 4.168L10.771 4.628C10.7509 4.64748 10.735 4.6708 10.7241 4.69656C10.7132 4.72233 10.7075 4.75002 10.7075 4.778C10.7075 4.80598 10.7132 4.83367 10.7241 4.85944C10.735 4.8852 10.7509 4.90852 10.771 4.928L14.41 8.577L14.872 8.117C14.9119 8.07867 14.9437 8.03278 14.9657 7.982C14.9876 7.93122 14.9992 7.87657 14.9997 7.82126C15.0003 7.76595 14.9898 7.71108 14.9689 7.65987C14.948 7.60866 14.9171 7.56213 14.878 7.523V7.523Z" fill="#1490DF" />
  <path d="M7.577 8.551H4.767C4.72751 8.55238 4.68903 8.53833 4.65972 8.51182C4.63041 8.48532 4.61258 8.44844 4.61 8.409C4.61048 8.38845 4.61561 8.36828 4.625 8.35L7.993 1.685C8.00716 1.65877 8.02828 1.63696 8.05404 1.62196C8.0798 1.60697 8.1092 1.59937 8.139 1.6H11.462C11.5013 1.5986 11.5397 1.61252 11.569 1.63882C11.5982 1.66511 11.6162 1.70175 11.619 1.741C11.6188 1.76956 11.6093 1.79728 11.592 1.82L7.636 7.037H11.494C11.5334 7.0351 11.5719 7.04886 11.6011 7.07529C11.6304 7.10171 11.6479 7.13865 11.65 7.178C11.6504 7.19651 11.6471 7.21491 11.6402 7.2321C11.6334 7.24928 11.6231 7.2649 11.61 7.278L5.2 13.943C5.14 13.979 4.712 14.335 4.922 13.795L7.577 8.551Z" fill="#FEA11B" />
</svg>